<svg xmlns="http://www.w3.org/2000/svg" viewBox="0 0 58 58.005"><path d="M54.874 37.392l-4.6-2.11-1.317-2.15a17.921 17.921 0 008.248-15.11v-8.83a1.371 1.371 0 00-.732-1.18l-11.826-6.36a1.293 1.293 0 00-1.264.02l-11.454 6.34a1.3 1.3 0 00-.665 1.18v9a18.127 18.127 0 001.543 7.43h-9.591a6.674 6.674 0 00-5.281 2.63l-5.228 6.92-8.78 2.42a5.364 5.364 0 00-3.924 5.17v3.38a5.412 5.412 0 005.348 5.4h.638a6.678 6.678 0 0012.9 0h19.555a6.677 6.677 0 0012.9 0h1.3a5.393 5.393 0 005.348-5.4v-3.88a5.386 5.386 0 00-3.118-4.87zM33.922 9.982l10.15-5.63 10.469 5.65v8.02a15.248 15.248 0 01-9.259 14.03h-.026l-1.277.55-1.038-.47a15.225 15.225 0 01-9.019-13.95v-8.2zm-21.484 43.78a4.07 4.07 0 114.031-4.07 4.05 4.05 0 01-4.031 4.07zm32.459 0a4.07 4.07 0 114.03-4.07 4.05 4.05 0 01-4.027 4.07zm10.456-7.63h-.014a2.722 2.722 0 01-2.687 2.71h-1.117a6.686 6.686 0 00-13.276 0H19.076a6.686 6.686 0 00-13.276 0h-.452a2.724 2.724 0 01-2.688-2.71v-3.38a2.7 2.7 0 011.969-2.58l9.206-2.54a1.342 1.342 0 00.718-.49l5.507-7.28a3.993 3.993 0 013.167-1.57h11.094a18.076 18.076 0 007.556 6.32l1.6.69a1.314 1.314 0 001.064 0l1.8-.77a2.271 2.271 0 01.266-.12l1.637 2.64a1.248 1.248 0 00.572.51l4.975 2.27a2.706 2.706 0 011.57 2.43v3.87zm-4.723-31.07a1.331 1.331 0 00-1.876-.21l-.013.01-6.226 5.12-2.261-2.68a1.328 1.328 0 00-1.876-.16 1.36 1.36 0 00-.159 1.9l.013.01 3.1 3.67a.108.108 0 00.039.05.2.2 0 00.054.05.322.322 0 00.053.06l.053.04a.28.28 0 00.067.04.2.2 0 01.053.04c.026.01.04.03.066.04a.147.147 0 00.054.03.23.23 0 00.079.02.151.151 0 00.053.03.252.252 0 01.08.03c.014 0 .04.01.053.01s.054.01.08.01.04.02.054.02h.292c.027 0 .067-.02.093-.02a.059.059 0 00.04-.01c.027 0 .054-.01.08-.01s.027-.02.04-.02a.163.163 0 00.066-.02.24.24 0 01.054-.02c.013-.01.04-.01.053-.02a.143.143 0 01.053-.03.143.143 0 00.053-.03.119.119 0 01.054-.02.177.177 0 01.053-.03.173.173 0 01.053-.04.1.1 0 00.04-.03l7.223-5.94a1.363 1.363 0 00.213-1.89z"/></svg>