<svg xmlns="http://www.w3.org/2000/svg" viewBox="0 0 55 55"><path d="M46.943 8.05a27.5 27.5 0 100 38.9 27.39 27.39 0 000-38.9zM10.09 45.59a24.227 24.227 0 017.371-5.5 23.243 23.243 0 0127.443 5.5 25.072 25.072 0 01-34.814 0zm36.46-1.73a25.647 25.647 0 00-30.115-5.92 26.7 26.7 0 00-7.991 5.91 25.119 25.119 0 1138.106.01zM27.5 6.19a1.2 1.2 0 00-1.193 1.2v7.18a1.193 1.193 0 002.385 0V7.39a1.2 1.2 0 00-1.192-1.2zm20.12 20.12h-7.18a1.2 1.2 0 000 2.39h7.18a1.2 1.2 0 00.003-2.39zm-33.061 0H7.38a1.2 1.2 0 000 2.39h7.179a1.2 1.2 0 00.003-2.39zm4.676-8.75l-.012-.01-5.129-5.13a1.189 1.189 0 00-1.693 1.67l.012.01 5.128 5.13a1.19 1.19 0 001.697-1.67zm23.364-5.14a1.18 1.18 0 00-1.682-.01l-.012.01-11.7 11.7a3.809 3.809 0 101.682 5.12 3.777 3.777 0 000-3.43l11.7-11.71a1.186 1.186 0 00.013-1.68zm-15.1 16.51a1.42 1.42 0 111.419-1.42 1.42 1.42 0 01-1.418 1.42z"/></svg>