<svg xmlns="http://www.w3.org/2000/svg" viewBox="0 0 55 55"><path d="M52.413 9.44l-3.616-1.67-3.211-5.18A5.4 5.4 0 0040.965 0H27.114a5.471 5.471 0 00-4.339 2.17l-4.131 5.49-6.9 1.92a4.448 4.448 0 00-3.212 4.3v2.71a4.361 4.361 0 004.29 4.42h.442a5.48 5.48 0 0010.529 0h15.346a5.481 5.481 0 0010.53 0h.907a4.419 4.419 0 004.425-4.41v-3.1a4.489 4.489 0 00-2.588-4.06zm-33.88 13.09a3.1 3.1 0 113.053-3.1 3.075 3.075 0 01-3.053 3.1zm25.864 0a3.1 3.1 0 113.052-3.1 3.075 3.075 0 01-3.049 3.1zm6.178-4h-.748a5.485 5.485 0 00-10.86 0h-15a5.493 5.493 0 00-10.873 0h-.208a1.877 1.877 0 01-1.888-1.87v-2.77a1.939 1.939 0 011.4-1.9l7.318-2.04a1.193 1.193 0 00.65-.45l4.376-5.83a2.978 2.978 0 012.378-1.19h13.839a2.933 2.933 0 012.537 1.41l3.408 5.51a1.213 1.213 0 00.527.47l3.959 1.82a1.993 1.993 0 011.152 1.79v3.12h.012a1.95 1.95 0 01-1.979 1.93zm.527 8.46l-.11-.12a4.3 4.3 0 00-2.979-1.26h-.024A4.154 4.154 0 0045 26.91c-2.82 2.91-7.649 7.85-8.875 9.11l-8.8 1.3-1.373-1.85 6.411-2a4.273 4.273 0 002.844-5.01 4.144 4.144 0 00-4.756-3.21l-13.876 2.24a5.368 5.368 0 00-2.672 1.22L0 42.41 10.443 55l6.938-7.78 18.9-.65a5.04 5.04 0 003.371-1.49l11.523-12.17.013-.01a4.312 4.312 0 00-.088-5.91zm-1.716 4.2L37.9 43.32a2.571 2.571 0 01-1.716.76l-19.93.68-5.749 6.45-7.159-8.64 12.172-11.98a2.978 2.978 0 011.41-.64l13.924-2.24h.025a1.708 1.708 0 011.949 1.31 1.777 1.777 0 01-1.165 2.09l-9.757 3.04 4.352 5.87L37.3 38.39l.294-.3c.061-.06 5.933-6.06 9.169-9.41a1.79 1.79 0 011.25-.53 1.847 1.847 0 011.238.48l.086.1a1.761 1.761 0 01.049 2.46z"/></svg>