<svg xmlns="http://www.w3.org/2000/svg" width="54.25" height="38.13"><path d="M26.529.02H14.24L3.301 15.92a18.874 18.874 0 00-3.3 10.35 11.183 11.183 0 003.521 8.55 12.425 12.425 0 008.842 3.3 12.128 12.128 0 008.842-3.45q3.519-3.45 3.522-9.38a10.476 10.476 0 00-4.946-9.22zm27.724 0H41.964l-10.939 15.9a18.874 18.874 0 00-3.3 10.35 11.183 11.183 0 003.521 8.55 12.425 12.425 0 008.842 3.3 12.128 12.128 0 008.842-3.45q3.519-3.45 3.522-9.38a10.476 10.476 0 00-4.946-9.22z" fill="#daedf6" fill-rule="evenodd"/></svg>